<svg xmlns="http://www.w3.org/2000/svg" viewBox="0 0 1065.34 1209.94"><defs><style>.cls-1{fill:#0268bd;}.cls-12,.cls-13,.cls-2{fill:#fff;}.cls-10,.cls-11,.cls-2{stroke:#000;stroke-miterlimit:10;}.cls-2{stroke-width:3px;}.cls-3{fill:#f9cf00;}.cls-4{fill:#c1322c;}.cls-5{fill:#f1bb00;}.cls-6{font-size:59px;}.cls-14,.cls-6{font-family:Reross-Quadratic, Reross;}.cls-7{letter-spacing:-0.02em;}.cls-8{letter-spacing:-0.03em;}.cls-9{letter-spacing:0em;}.cls-10,.cls-11{fill:none;}.cls-11{opacity:0.45;}.cls-12{font-size:100px;font-family:Ebrima-Bold, Ebrima;font-weight:700;}.cls-14{font-size:33.83px;}</style></defs><title>Asset 5</title><g id="Layer_2" data-name="Layer 2"><g id="Layer_1-2" data-name="Layer 1"><rect class="cls-1" x="307.09" width="264.79" height="214.47"/><path class="cls-2" d="M227.4,488.74c69.87-67.17,331.92-280.67,594.89.92a25.63,25.63,0,0,1,0,35C558.5,807.27,297,593,227.34,525.65A25.63,25.63,0,0,1,227.4,488.74Z"/><circle class="cls-1" cx="534.76" cy="507.43" r="146.43"/><circle cx="534.76" cy="507.43" r="87.42"/><polygon class="cls-3" points="701.85 935.49 923 626.35 480.69 626.35 701.85 935.49"/><rect class="cls-4" x="363.43" y="58.15" width="24.9" height="289.77"/><rect class="cls-5" x="675.2" y="311.67" width="390.14" height="56.34"/><circle class="cls-5" cx="416.37" cy="468.01" r="67.73"/><circle class="cls-4" cx="675.2" cy="555.81" r="28.65"/><circle class="cls-4" cx="614.2" cy="456.67" r="42.32"/><text class="cls-6" transform="translate(587.03 702.46)">S<tspan class="cls-7" x="42.72" y="0">e</tspan><tspan x="73.22" y="0">e </tspan><tspan class="cls-8" x="121.42" y="0">y</tspan><tspan class="cls-9" x="147.03" y="0">our</tspan><tspan x="30.56" y="72">future.</tspan></text><line class="cls-10" x1="490.19" y1="507.43" x2="193.01" y2="311.67"/><line class="cls-11" x1="454.98" y1="594.85" x2="812.73" y2="168.01"/><rect class="cls-4" x="136.36" y="629.22" width="143.66" height="583.91" transform="translate(488.48 19.32) rotate(30)"/><text class="cls-12" transform="translate(502.31 542)">8</text><text class="cls-6" transform="translate(508.74 995.69)"><tspan class="cls-7">ma</tspan><tspan x="84.25" y="0">gic</tspan></text><circle cx="708.8" cy="1005.88" r="33.92"/><circle class="cls-13" cx="708.8" cy="1005.3" r="21.26"/><text class="cls-14" transform="translate(698.48 1017.92)">8</text><text class="cls-6" transform="translate(752.72 1057.06)"><tspan class="cls-7">b</tspan><tspan x="31.63" y="0">all</tspan></text></g></g></svg>